<?xml version="1.0" encoding="UTF-8" standalone="no"?>
<!DOCTYPE svg PUBLIC "-//W3C//DTD SVG 1.1//EN" "http://www.w3.org/Graphics/SVG/1.1/DTD/svg11.dtd">
<svg width="100%" height="100%" viewBox="0 0 920 920" version="1.1" xmlns="http://www.w3.org/2000/svg" xmlns:xlink="http://www.w3.org/1999/xlink" xml:space="preserve" xmlns:serif="http://www.serif.com/" style="fill-rule:evenodd;clip-rule:evenodd;stroke-linejoin:round;stroke-miterlimit:2;">
    <g transform="matrix(1,0,0,1,60,60)">
        <path d="M53.59,200L400,0L746.41,200L400,400L53.59,200Z" style="fill:#cc5de8;"/>
        <path d="M400,800L53.59,600L53.59,200L400,400L400,800Z" style="fill:#101010;"/>
        <g transform="matrix(-1,0,0,1,800,0)">
            <path d="M400,800L53.59,600L53.59,200L400,400L400,800Z" style="fill:#be4bdb;"/>
        </g>
        <g transform="matrix(5.01423,0,0,5.01423,-2055.16,-359.525)">
            <g transform="matrix(50,0,0,50,455.069,177.064)">
                <path d="M-0.153,0.08L-0.159,0.164L-0.179,0.231L-0.214,0.277L-0.267,0.297L-0.339,0.287L-0.434,0.244L-0.552,0.176L-0.552,-0.462L-0.41,-0.38C-0.33,-0.334 -0.262,-0.273 -0.217,-0.192C-0.17,-0.108 -0.153,-0.014 -0.153,0.08ZM-0.232,0.041L-0.243,-0.08L-0.276,-0.175L-0.333,-0.249L-0.412,-0.308L-0.477,-0.346L-0.477,0.144L-0.421,0.177C-0.291,0.252 -0.232,0.172 -0.232,0.041Z" style="fill:#fff;fill-rule:nonzero;"/>
            </g>
        </g>
    </g>
</svg>
